<svg xmlns="http://www.w3.org/2000/svg" xmlns:xlink="http://www.w3.org/1999/xlink" width="400" zoomAndPan="magnify" viewBox="0 0 300 74.999997" height="100" preserveAspectRatio="xMidYMid meet" version="1.0"><defs><g/></defs><g fill="#000000" fill-opacity="1"><g transform="translate(3.86792, 53.962451)"><g><path d="M 17.125 -37.28125 L 17.125 -36.140625 L 13.140625 -36.140625 L 13.140625 -20.484375 L 29.9375 -20.484375 L 29.9375 -36.140625 L 25.953125 -36.140625 L 25.953125 -37.28125 L 40.6875 -37.28125 L 40.6875 -36.140625 L 36.3125 -36.140625 L 36.3125 -1.140625 L 40.6875 -1.140625 L 40.6875 0 L 25.953125 0 L 25.953125 -1.140625 L 29.9375 -1.140625 L 29.9375 -19.34375 L 13.140625 -19.34375 L 13.140625 -1.140625 L 17.125 -1.140625 L 17.125 0 L 2.390625 0 L 2.390625 -1.140625 L 6.765625 -1.140625 L 6.765625 -36.140625 L 2.390625 -36.140625 L 2.390625 -37.28125 Z M 17.125 -37.28125 "/></g></g></g><g fill="#000000" fill-opacity="1"><g transform="translate(46.94435, 53.962451)"><g><path d="M 13.59375 -24.875 C 15.414062 -24.875 17.113281 -24.503906 18.6875 -23.765625 C 20.269531 -23.023438 21.609375 -22.023438 22.703125 -20.765625 C 23.722656 -19.585938 24.519531 -18.226562 25.09375 -16.6875 C 25.664062 -15.15625 25.953125 -13.632812 25.953125 -12.125 C 25.953125 -10.53125 25.664062 -8.960938 25.09375 -7.421875 C 24.519531 -5.890625 23.722656 -4.554688 22.703125 -3.421875 C 21.609375 -2.203125 20.253906 -1.222656 18.640625 -0.484375 C 17.023438 0.253906 15.34375 0.625 13.59375 0.625 C 11.851562 0.625 10.175781 0.253906 8.5625 -0.484375 C 6.945312 -1.222656 5.59375 -2.203125 4.5 -3.421875 C 3.46875 -4.554688 2.664062 -5.890625 2.09375 -7.421875 C 1.53125 -8.960938 1.25 -10.53125 1.25 -12.125 C 1.25 -13.632812 1.53125 -15.15625 2.09375 -16.6875 C 2.664062 -18.226562 3.46875 -19.585938 4.5 -20.765625 C 5.59375 -22.023438 6.925781 -23.023438 8.5 -23.765625 C 10.082031 -24.503906 11.78125 -24.875 13.59375 -24.875 Z M 7.625 -8.421875 C 7.625 -7.546875 7.726562 -6.566406 7.9375 -5.484375 C 8.144531 -4.410156 8.515625 -3.472656 9.046875 -2.671875 C 9.691406 -1.722656 10.410156 -1.101562 11.203125 -0.8125 C 12.003906 -0.53125 12.800781 -0.390625 13.59375 -0.390625 C 14.394531 -0.390625 15.191406 -0.53125 15.984375 -0.8125 C 16.785156 -1.101562 17.507812 -1.722656 18.15625 -2.671875 C 18.6875 -3.472656 19.054688 -4.410156 19.265625 -5.484375 C 19.472656 -6.566406 19.578125 -7.546875 19.578125 -8.421875 L 19.578125 -14.109375 C 19.578125 -15.441406 19.519531 -16.734375 19.40625 -17.984375 C 19.289062 -19.234375 18.875 -20.367188 18.15625 -21.390625 C 17.851562 -21.847656 17.332031 -22.367188 16.59375 -22.953125 C 15.851562 -23.546875 14.851562 -23.84375 13.59375 -23.84375 C 12.34375 -23.84375 11.347656 -23.546875 10.609375 -22.953125 C 9.867188 -22.367188 9.347656 -21.847656 9.046875 -21.390625 C 8.328125 -20.367188 7.910156 -19.234375 7.796875 -17.984375 C 7.679688 -16.734375 7.625 -15.441406 7.625 -14.109375 Z M 7.625 -8.421875 "/></g></g></g><g fill="#000000" fill-opacity="1"><g transform="translate(74.144529, 53.962451)"><g><path d="M 1.140625 -23.28125 L 1.140625 -24.234375 L 7.6875 -24.234375 C 8.0625 -24.234375 8.421875 -24.253906 8.765625 -24.296875 C 9.109375 -24.335938 9.617188 -24.414062 10.296875 -24.53125 L 10.296875 -20.9375 C 11.210938 -21.96875 12.273438 -22.859375 13.484375 -23.609375 C 14.285156 -24.109375 15.035156 -24.441406 15.734375 -24.609375 C 16.429688 -24.785156 17.203125 -24.875 18.046875 -24.875 C 19.898438 -24.875 21.347656 -24.460938 22.390625 -23.640625 C 23.429688 -22.828125 24.101562 -21.851562 24.40625 -20.71875 C 24.863281 -21.25 25.382812 -21.78125 25.96875 -22.3125 C 26.5625 -22.84375 27.144531 -23.273438 27.71875 -23.609375 C 28.46875 -24.109375 29.234375 -24.441406 30.015625 -24.609375 C 30.796875 -24.785156 31.582031 -24.875 32.375 -24.875 C 33.09375 -24.875 33.945312 -24.757812 34.9375 -24.53125 C 35.925781 -24.300781 36.816406 -23.75 37.609375 -22.875 C 38.179688 -22.226562 38.550781 -21.582031 38.71875 -20.9375 C 38.894531 -20.289062 38.984375 -19.703125 38.984375 -19.171875 L 38.984375 -0.96875 L 42.5625 -0.96875 L 42.5625 0 L 30.21875 0 L 30.21875 -0.96875 L 33.40625 -0.96875 L 33.40625 -19.171875 C 33.40625 -19.398438 33.363281 -19.796875 33.28125 -20.359375 C 33.207031 -20.929688 33.019531 -21.484375 32.71875 -22.015625 C 32.414062 -22.515625 32.046875 -22.859375 31.609375 -23.046875 C 31.171875 -23.234375 30.6875 -23.328125 30.15625 -23.328125 C 29.507812 -23.328125 28.96875 -23.210938 28.53125 -22.984375 C 28.101562 -22.765625 27.660156 -22.484375 27.203125 -22.140625 C 26.140625 -21.304688 25.285156 -20.453125 24.640625 -19.578125 L 24.640625 -0.96875 L 27.828125 -0.96875 L 27.828125 0 L 15.875 0 L 15.875 -0.96875 L 19.0625 -0.96875 L 19.0625 -19.171875 C 19.0625 -19.628906 19.039062 -20.09375 19 -20.5625 C 18.96875 -21.039062 18.757812 -21.546875 18.375 -22.078125 C 17.769531 -22.910156 16.898438 -23.328125 15.765625 -23.328125 C 15.160156 -23.328125 14.640625 -23.222656 14.203125 -23.015625 C 13.765625 -22.804688 13.316406 -22.515625 12.859375 -22.140625 C 11.796875 -21.304688 10.941406 -20.453125 10.296875 -19.578125 L 10.296875 -0.96875 L 13.484375 -0.96875 L 13.484375 0 L 1.140625 0 L 1.140625 -0.96875 L 4.71875 -0.96875 L 4.71875 -23.28125 Z M 1.140625 -23.28125 "/></g></g></g><g fill="#000000" fill-opacity="1"><g transform="translate(117.676193, 53.962451)"><g><path d="M 23.78125 -6.140625 C 23.332031 -5.378906 22.773438 -4.609375 22.109375 -3.828125 C 21.441406 -3.054688 20.828125 -2.425781 20.265625 -1.9375 C 19.117188 -0.945312 17.9375 -0.273438 16.71875 0.078125 C 15.507812 0.441406 14.359375 0.625 13.265625 0.625 C 11.554688 0.625 9.910156 0.285156 8.328125 -0.390625 C 6.753906 -1.078125 5.421875 -2.03125 4.328125 -3.25 C 3.335938 -4.382812 2.578125 -5.738281 2.046875 -7.3125 C 1.515625 -8.882812 1.25 -10.410156 1.25 -11.890625 C 1.25 -13.597656 1.523438 -15.207031 2.078125 -16.71875 C 2.628906 -18.238281 3.394531 -19.585938 4.375 -20.765625 C 5.664062 -22.285156 7.0625 -23.347656 8.5625 -23.953125 C 10.0625 -24.566406 11.53125 -24.875 12.96875 -24.875 C 14.601562 -24.875 16.117188 -24.53125 17.515625 -23.84375 C 18.921875 -23.15625 20.101562 -22.207031 21.0625 -21 C 21.851562 -19.976562 22.457031 -18.789062 22.875 -17.4375 C 23.289062 -16.09375 23.519531 -14.757812 23.5625 -13.4375 L 7.625 -13.4375 L 7.625 -9.5625 C 7.625 -8.113281 7.726562 -6.8125 7.9375 -5.65625 C 8.144531 -4.5 8.550781 -3.503906 9.15625 -2.671875 C 9.6875 -1.992188 10.332031 -1.441406 11.09375 -1.015625 C 11.851562 -0.597656 12.726562 -0.390625 13.71875 -0.390625 C 14.625 -0.390625 15.597656 -0.617188 16.640625 -1.078125 C 17.679688 -1.535156 18.695312 -2.203125 19.6875 -3.078125 C 20.375 -3.722656 21 -4.40625 21.5625 -5.125 C 22.132812 -5.84375 22.550781 -6.390625 22.8125 -6.765625 Z M 17.640625 -14.390625 L 17.640625 -15.875 C 17.640625 -16.75 17.597656 -17.628906 17.515625 -18.515625 C 17.441406 -19.410156 17.3125 -20.179688 17.125 -20.828125 C 16.445312 -22.878906 15.003906 -23.90625 12.796875 -23.90625 C 11.703125 -23.90625 10.785156 -23.675781 10.046875 -23.21875 C 9.304688 -22.757812 8.726562 -22.113281 8.3125 -21.28125 C 8.007812 -20.632812 7.816406 -20.035156 7.734375 -19.484375 C 7.660156 -18.941406 7.625 -18.441406 7.625 -17.984375 L 7.625 -14.390625 Z M 17.640625 -14.390625 "/></g></g></g><g fill="#000000" fill-opacity="1"><g transform="translate(142.714012, 53.962451)"><g><path d="M 30.84375 -37.28125 L 31.46875 -25.328125 L 30.109375 -25.328125 C 30.066406 -25.628906 30.003906 -26.070312 29.921875 -26.65625 C 29.847656 -27.25 29.734375 -27.894531 29.578125 -28.59375 C 29.429688 -29.289062 29.222656 -30.007812 28.953125 -30.75 C 28.691406 -31.5 28.335938 -32.175781 27.890625 -32.78125 C 26.898438 -34.144531 25.757812 -35.046875 24.46875 -35.484375 C 23.175781 -35.921875 21.789062 -36.140625 20.3125 -36.140625 L 13.140625 -36.140625 L 13.140625 -19.6875 L 16.78125 -19.6875 C 17.050781 -19.6875 17.410156 -19.695312 17.859375 -19.71875 C 18.316406 -19.738281 18.789062 -19.84375 19.28125 -20.03125 C 19.78125 -20.21875 20.273438 -20.519531 20.765625 -20.9375 C 21.265625 -21.351562 21.679688 -21.960938 22.015625 -22.765625 C 22.285156 -23.328125 22.484375 -23.957031 22.609375 -24.65625 C 22.742188 -25.363281 22.851562 -25.984375 22.9375 -26.515625 L 24.078125 -26.515625 L 24.078125 -11.609375 L 22.9375 -11.609375 C 22.9375 -11.796875 22.890625 -12.296875 22.796875 -13.109375 C 22.703125 -13.929688 22.460938 -14.757812 22.078125 -15.59375 C 21.472656 -16.914062 20.722656 -17.738281 19.828125 -18.0625 C 18.941406 -18.382812 18.039062 -18.546875 17.125 -18.546875 L 13.140625 -18.546875 L 13.140625 -1.140625 L 17.53125 -1.140625 L 17.53125 0 L 2.390625 0 L 2.390625 -1.140625 L 6.765625 -1.140625 L 6.765625 -36.140625 L 2.390625 -36.140625 L 2.390625 -37.28125 Z M 30.84375 -37.28125 "/></g></g></g><g fill="#000000" fill-opacity="1"><g transform="translate(174.97865, 53.962451)"><g><path d="M 1.140625 -23.28125 L 1.140625 -24.234375 L 6.765625 -24.234375 C 7.378906 -24.234375 7.898438 -24.242188 8.328125 -24.265625 C 8.765625 -24.285156 9.421875 -24.375 10.296875 -24.53125 L 10.296875 -0.96875 L 13.890625 -0.96875 L 13.890625 0 L 1.140625 0 L 1.140625 -0.96875 L 4.71875 -0.96875 L 4.71875 -23.28125 Z M 4.21875 -33.453125 C 4.21875 -34.328125 4.53125 -35.078125 5.15625 -35.703125 C 5.78125 -36.328125 6.523438 -36.640625 7.390625 -36.640625 C 8.265625 -36.640625 9.015625 -36.328125 9.640625 -35.703125 C 10.265625 -35.078125 10.578125 -34.328125 10.578125 -33.453125 C 10.578125 -32.585938 10.265625 -31.84375 9.640625 -31.21875 C 9.015625 -30.59375 8.265625 -30.28125 7.390625 -30.28125 C 6.523438 -30.28125 5.78125 -30.59375 5.15625 -31.21875 C 4.53125 -31.84375 4.21875 -32.585938 4.21875 -33.453125 Z M 4.21875 -33.453125 "/></g></g></g><g fill="#000000" fill-opacity="1"><g transform="translate(189.830631, 53.962451)"><g><path d="M 1.140625 -23.28125 L 1.140625 -24.234375 L 6.828125 -24.234375 C 7.171875 -24.234375 7.457031 -24.234375 7.6875 -24.234375 C 7.914062 -24.234375 8.148438 -24.242188 8.390625 -24.265625 C 8.640625 -24.285156 8.90625 -24.3125 9.1875 -24.34375 C 9.46875 -24.382812 9.835938 -24.445312 10.296875 -24.53125 L 10.296875 -20.9375 C 10.710938 -21.394531 11.234375 -21.890625 11.859375 -22.421875 C 12.484375 -22.953125 13.0625 -23.367188 13.59375 -23.671875 C 14.4375 -24.160156 15.242188 -24.484375 16.015625 -24.640625 C 16.796875 -24.796875 17.566406 -24.875 18.328125 -24.875 C 19.191406 -24.875 20.175781 -24.757812 21.28125 -24.53125 C 22.382812 -24.300781 23.351562 -23.769531 24.1875 -22.9375 C 24.601562 -22.519531 24.960938 -22.003906 25.265625 -21.390625 C 25.566406 -20.785156 25.71875 -20.046875 25.71875 -19.171875 L 25.71875 -0.96875 L 29.3125 -0.96875 L 29.3125 0 L 16.953125 0 L 16.953125 -0.96875 L 20.140625 -0.96875 L 20.140625 -19.171875 C 20.140625 -19.585938 20.109375 -20.039062 20.046875 -20.53125 C 19.992188 -21.03125 19.757812 -21.546875 19.34375 -22.078125 C 18.925781 -22.609375 18.472656 -22.945312 17.984375 -23.09375 C 17.492188 -23.25 16.941406 -23.328125 16.328125 -23.328125 C 15.765625 -23.328125 15.222656 -23.25 14.703125 -23.09375 C 14.191406 -22.945312 13.632812 -22.644531 13.03125 -22.1875 C 12.613281 -21.882812 12.148438 -21.476562 11.640625 -20.96875 C 11.128906 -20.457031 10.679688 -19.992188 10.296875 -19.578125 L 10.296875 -0.96875 L 13.484375 -0.96875 L 13.484375 0 L 1.140625 0 L 1.140625 -0.96875 L 4.71875 -0.96875 L 4.71875 -23.28125 Z M 1.140625 -23.28125 "/></g></g></g><g fill="#000000" fill-opacity="1"><g transform="translate(220.10362, 53.962451)"><g><path d="M 14.796875 -36.140625 L 14.796875 -37.109375 L 20.484375 -37.109375 C 21.316406 -37.109375 21.988281 -37.125 22.5 -37.15625 C 23.019531 -37.195312 23.503906 -37.289062 23.953125 -37.4375 L 23.953125 -0.96875 L 27.546875 -0.96875 L 27.546875 0 L 18.375 0 L 18.375 -3.078125 C 17.84375 -2.203125 17.21875 -1.460938 16.5 -0.859375 C 15.289062 0.128906 13.90625 0.625 12.34375 0.625 C 11.695312 0.625 11.003906 0.554688 10.265625 0.421875 C 9.523438 0.296875 8.773438 0.0507812 8.015625 -0.3125 C 7.265625 -0.675781 6.507812 -1.175781 5.75 -1.8125 C 4.988281 -2.457031 4.265625 -3.273438 3.578125 -4.265625 C 2.023438 -6.578125 1.25 -9.101562 1.25 -11.84375 C 1.25 -13.769531 1.539062 -15.492188 2.125 -17.015625 C 2.71875 -18.535156 3.488281 -19.84375 4.4375 -20.9375 C 5.570312 -22.269531 6.898438 -23.257812 8.421875 -23.90625 C 9.941406 -24.550781 11.421875 -24.875 12.859375 -24.875 C 13.617188 -24.875 14.265625 -24.796875 14.796875 -24.640625 C 15.328125 -24.484375 15.835938 -24.253906 16.328125 -23.953125 C 16.742188 -23.691406 17.113281 -23.425781 17.4375 -23.15625 C 17.757812 -22.894531 18.070312 -22.570312 18.375 -22.1875 L 18.375 -36.140625 Z M 7.625 -7.796875 C 7.625 -7.109375 7.679688 -6.257812 7.796875 -5.25 C 7.910156 -4.25 8.210938 -3.375 8.703125 -2.625 C 9.117188 -1.976562 9.6875 -1.441406 10.40625 -1.015625 C 11.132812 -0.597656 11.914062 -0.390625 12.75 -0.390625 C 13.507812 -0.390625 14.316406 -0.597656 15.171875 -1.015625 C 16.023438 -1.441406 16.734375 -2.085938 17.296875 -2.953125 C 18.015625 -4.015625 18.375 -5.191406 18.375 -6.484375 L 18.375 -17.40625 C 18.375 -18.09375 18.335938 -18.785156 18.265625 -19.484375 C 18.191406 -20.191406 17.945312 -20.882812 17.53125 -21.5625 C 17.070312 -22.289062 16.460938 -22.851562 15.703125 -23.25 C 14.941406 -23.644531 14.1875 -23.84375 13.4375 -23.84375 C 12.332031 -23.84375 11.332031 -23.53125 10.4375 -22.90625 C 9.550781 -22.28125 8.898438 -21.472656 8.484375 -20.484375 C 8.328125 -20.179688 8.191406 -19.800781 8.078125 -19.34375 C 7.960938 -18.894531 7.875 -18.429688 7.8125 -17.953125 C 7.757812 -17.484375 7.710938 -17.019531 7.671875 -16.5625 C 7.640625 -16.101562 7.625 -15.703125 7.625 -15.359375 Z M 7.625 -7.796875 "/></g></g></g><g fill="#000000" fill-opacity="1"><g transform="translate(248.612591, 53.962451)"><g><path d="M 23.78125 -6.140625 C 23.332031 -5.378906 22.773438 -4.609375 22.109375 -3.828125 C 21.441406 -3.054688 20.828125 -2.425781 20.265625 -1.9375 C 19.117188 -0.945312 17.9375 -0.273438 16.71875 0.078125 C 15.507812 0.441406 14.359375 0.625 13.265625 0.625 C 11.554688 0.625 9.910156 0.285156 8.328125 -0.390625 C 6.753906 -1.078125 5.421875 -2.03125 4.328125 -3.25 C 3.335938 -4.382812 2.578125 -5.738281 2.046875 -7.3125 C 1.515625 -8.882812 1.25 -10.410156 1.25 -11.890625 C 1.25 -13.597656 1.523438 -15.207031 2.078125 -16.71875 C 2.628906 -18.238281 3.394531 -19.585938 4.375 -20.765625 C 5.664062 -22.285156 7.0625 -23.347656 8.5625 -23.953125 C 10.0625 -24.566406 11.53125 -24.875 12.96875 -24.875 C 14.601562 -24.875 16.117188 -24.53125 17.515625 -23.84375 C 18.921875 -23.15625 20.101562 -22.207031 21.0625 -21 C 21.851562 -19.976562 22.457031 -18.789062 22.875 -17.4375 C 23.289062 -16.09375 23.519531 -14.757812 23.5625 -13.4375 L 7.625 -13.4375 L 7.625 -9.5625 C 7.625 -8.113281 7.726562 -6.8125 7.9375 -5.65625 C 8.144531 -4.5 8.550781 -3.503906 9.15625 -2.671875 C 9.6875 -1.992188 10.332031 -1.441406 11.09375 -1.015625 C 11.851562 -0.597656 12.726562 -0.390625 13.71875 -0.390625 C 14.625 -0.390625 15.597656 -0.617188 16.640625 -1.078125 C 17.679688 -1.535156 18.695312 -2.203125 19.6875 -3.078125 C 20.375 -3.722656 21 -4.40625 21.5625 -5.125 C 22.132812 -5.84375 22.550781 -6.390625 22.8125 -6.765625 Z M 17.640625 -14.390625 L 17.640625 -15.875 C 17.640625 -16.75 17.597656 -17.628906 17.515625 -18.515625 C 17.441406 -19.410156 17.3125 -20.179688 17.125 -20.828125 C 16.445312 -22.878906 15.003906 -23.90625 12.796875 -23.90625 C 11.703125 -23.90625 10.785156 -23.675781 10.046875 -23.21875 C 9.304688 -22.757812 8.726562 -22.113281 8.3125 -21.28125 C 8.007812 -20.632812 7.816406 -20.035156 7.734375 -19.484375 C 7.660156 -18.941406 7.625 -18.441406 7.625 -17.984375 L 7.625 -14.390625 Z M 17.640625 -14.390625 "/></g></g></g><g fill="#000000" fill-opacity="1"><g transform="translate(273.650409, 53.962451)"><g><path d="M 1.140625 -23.28125 L 1.140625 -24.234375 L 6.828125 -24.234375 C 7.398438 -24.234375 7.898438 -24.242188 8.328125 -24.265625 C 8.765625 -24.285156 9.421875 -24.375 10.296875 -24.53125 L 10.296875 -19.46875 C 10.566406 -20 10.890625 -20.566406 11.265625 -21.171875 C 11.648438 -21.773438 12.03125 -22.269531 12.40625 -22.65625 C 12.863281 -23.144531 13.535156 -23.632812 14.421875 -24.125 C 15.316406 -24.625 16.367188 -24.875 17.578125 -24.875 C 18.335938 -24.875 18.972656 -24.773438 19.484375 -24.578125 C 20.003906 -24.390625 20.414062 -24.179688 20.71875 -23.953125 C 21.625 -23.273438 22.078125 -22.289062 22.078125 -21 C 22.078125 -20.613281 22.03125 -20.25 21.9375 -19.90625 C 21.84375 -19.570312 21.644531 -19.253906 21.34375 -18.953125 C 20.695312 -18.304688 19.992188 -17.984375 19.234375 -17.984375 C 18.359375 -17.984375 17.65625 -18.226562 17.125 -18.71875 C 16.59375 -19.21875 16.328125 -19.84375 16.328125 -20.59375 C 16.328125 -20.789062 16.347656 -20.960938 16.390625 -21.109375 C 16.429688 -21.265625 16.453125 -21.4375 16.453125 -21.625 C 16.453125 -22.34375 15.992188 -22.703125 15.078125 -22.703125 C 14.128906 -22.703125 13.179688 -22.113281 12.234375 -20.9375 C 11.773438 -20.375 11.410156 -19.796875 11.140625 -19.203125 C 10.878906 -18.617188 10.691406 -18.0625 10.578125 -17.53125 C 10.460938 -17 10.382812 -16.515625 10.34375 -16.078125 C 10.3125 -15.640625 10.296875 -15.285156 10.296875 -15.015625 L 10.296875 -0.96875 L 13.890625 -0.96875 L 13.890625 0 L 1.140625 0 L 1.140625 -0.96875 L 4.71875 -0.96875 L 4.71875 -23.28125 Z M 1.140625 -23.28125 "/></g></g></g></svg>