<svg xmlns="http://www.w3.org/2000/svg" xmlns:xlink="http://www.w3.org/1999/xlink" width="500" zoomAndPan="magnify" viewBox="0 0 375 74.999997" height="100" preserveAspectRatio="xMidYMid meet" version="1.0"><defs><g/></defs><g fill="#000000" fill-opacity="1"><g transform="translate(15.449999, 56.624994)"><g><path d="M 20.171875 -43.890625 L 20.171875 -42.546875 L 15.484375 -42.546875 L 15.484375 -24.125 L 35.234375 -24.125 L 35.234375 -42.546875 L 30.546875 -42.546875 L 30.546875 -43.890625 L 47.90625 -43.890625 L 47.90625 -42.546875 L 42.75 -42.546875 L 42.75 -1.34375 L 47.90625 -1.34375 L 47.90625 0 L 30.546875 0 L 30.546875 -1.34375 L 35.234375 -1.34375 L 35.234375 -22.78125 L 15.484375 -22.78125 L 15.484375 -1.34375 L 20.171875 -1.34375 L 20.171875 0 L 2.8125 0 L 2.8125 -1.34375 L 7.96875 -1.34375 L 7.96875 -42.546875 L 2.8125 -42.546875 L 2.8125 -43.890625 Z M 20.171875 -43.890625 "/></g></g></g><g fill="#000000" fill-opacity="1"><g transform="translate(66.165998, 56.624994)"><g><path d="M 16.015625 -29.28125 C 18.160156 -29.28125 20.160156 -28.84375 22.015625 -27.96875 C 23.867188 -27.101562 25.441406 -25.929688 26.734375 -24.453125 C 27.941406 -23.066406 28.878906 -21.46875 29.546875 -19.65625 C 30.210938 -17.851562 30.546875 -16.054688 30.546875 -14.265625 C 30.546875 -12.390625 30.210938 -10.546875 29.546875 -8.734375 C 28.878906 -6.929688 27.941406 -5.359375 26.734375 -4.015625 C 25.441406 -2.585938 23.84375 -1.4375 21.9375 -0.5625 C 20.039062 0.300781 18.066406 0.734375 16.015625 0.734375 C 13.960938 0.734375 11.984375 0.300781 10.078125 -0.5625 C 8.179688 -1.4375 6.585938 -2.585938 5.296875 -4.015625 C 4.085938 -5.359375 3.144531 -6.929688 2.46875 -8.734375 C 1.800781 -10.546875 1.46875 -12.390625 1.46875 -14.265625 C 1.46875 -16.054688 1.800781 -17.851562 2.46875 -19.65625 C 3.144531 -21.46875 4.085938 -23.066406 5.296875 -24.453125 C 6.585938 -25.929688 8.160156 -27.101562 10.015625 -27.96875 C 11.867188 -28.84375 13.867188 -29.28125 16.015625 -29.28125 Z M 8.984375 -9.921875 C 8.984375 -8.890625 9.101562 -7.738281 9.34375 -6.46875 C 9.59375 -5.195312 10.03125 -4.09375 10.65625 -3.15625 C 11.414062 -2.03125 12.265625 -1.300781 13.203125 -0.96875 C 14.140625 -0.632812 15.078125 -0.46875 16.015625 -0.46875 C 16.953125 -0.46875 17.890625 -0.632812 18.828125 -0.96875 C 19.765625 -1.300781 20.613281 -2.03125 21.375 -3.15625 C 22 -4.09375 22.429688 -5.195312 22.671875 -6.46875 C 22.921875 -7.738281 23.046875 -8.890625 23.046875 -9.921875 L 23.046875 -16.609375 C 23.046875 -18.179688 22.976562 -19.703125 22.84375 -21.171875 C 22.707031 -22.648438 22.21875 -23.988281 21.375 -25.1875 C 21.019531 -25.726562 20.40625 -26.34375 19.53125 -27.03125 C 18.65625 -27.726562 17.484375 -28.078125 16.015625 -28.078125 C 14.535156 -28.078125 13.359375 -27.726562 12.484375 -27.03125 C 11.617188 -26.34375 11.007812 -25.726562 10.65625 -25.1875 C 9.800781 -23.988281 9.304688 -22.648438 9.171875 -21.171875 C 9.046875 -19.703125 8.984375 -18.179688 8.984375 -16.609375 Z M 8.984375 -9.921875 "/></g></g></g><g fill="#000000" fill-opacity="1"><g transform="translate(98.190101, 56.624994)"><g><path d="M 1.34375 -27.40625 L 1.34375 -28.546875 L 9.046875 -28.546875 C 9.492188 -28.546875 9.914062 -28.566406 10.3125 -28.609375 C 10.71875 -28.648438 11.320312 -28.738281 12.125 -28.875 L 12.125 -24.65625 C 13.195312 -25.863281 14.445312 -26.914062 15.875 -27.8125 C 16.8125 -28.382812 17.691406 -28.769531 18.515625 -28.96875 C 19.347656 -29.175781 20.253906 -29.28125 21.234375 -29.28125 C 23.421875 -29.28125 25.128906 -28.796875 26.359375 -27.828125 C 27.585938 -26.867188 28.382812 -25.722656 28.75 -24.390625 C 29.28125 -25.015625 29.890625 -25.640625 30.578125 -26.265625 C 31.273438 -26.890625 31.957031 -27.40625 32.625 -27.8125 C 33.519531 -28.382812 34.425781 -28.769531 35.34375 -28.96875 C 36.257812 -29.175781 37.1875 -29.28125 38.125 -29.28125 C 38.96875 -29.28125 39.96875 -29.144531 41.125 -28.875 C 42.289062 -28.601562 43.34375 -27.957031 44.28125 -26.9375 C 44.957031 -26.175781 45.394531 -25.414062 45.59375 -24.65625 C 45.789062 -23.894531 45.890625 -23.203125 45.890625 -22.578125 L 45.890625 -1.140625 L 50.109375 -1.140625 L 50.109375 0 L 35.578125 0 L 35.578125 -1.140625 L 39.328125 -1.140625 L 39.328125 -22.578125 C 39.328125 -22.847656 39.28125 -23.316406 39.1875 -23.984375 C 39.101562 -24.648438 38.882812 -25.296875 38.53125 -25.921875 C 38.164062 -26.503906 37.726562 -26.90625 37.21875 -27.125 C 36.707031 -27.351562 36.140625 -27.46875 35.515625 -27.46875 C 34.753906 -27.46875 34.113281 -27.332031 33.59375 -27.0625 C 33.082031 -26.800781 32.5625 -26.46875 32.03125 -26.0625 C 30.78125 -25.082031 29.773438 -24.078125 29.015625 -23.046875 L 29.015625 -1.140625 L 32.765625 -1.140625 L 32.765625 0 L 18.6875 0 L 18.6875 -1.140625 L 22.4375 -1.140625 L 22.4375 -22.578125 C 22.4375 -23.117188 22.414062 -23.664062 22.375 -24.21875 C 22.332031 -24.78125 22.085938 -25.375 21.640625 -26 C 20.921875 -26.976562 19.894531 -27.46875 18.5625 -27.46875 C 17.84375 -27.46875 17.226562 -27.34375 16.71875 -27.09375 C 16.207031 -26.851562 15.679688 -26.507812 15.140625 -26.0625 C 13.890625 -25.082031 12.882812 -24.078125 12.125 -23.046875 L 12.125 -1.140625 L 15.875 -1.140625 L 15.875 0 L 1.34375 0 L 1.34375 -1.140625 L 5.5625 -1.140625 L 5.5625 -27.40625 Z M 1.34375 -27.40625 "/></g></g></g><g fill="#000000" fill-opacity="1"><g transform="translate(149.442061, 56.624994)"><g><path d="M 28 -7.234375 C 27.46875 -6.335938 26.8125 -5.429688 26.03125 -4.515625 C 25.25 -3.609375 24.523438 -2.863281 23.859375 -2.28125 C 22.515625 -1.113281 21.125 -0.320312 19.6875 0.09375 C 18.257812 0.519531 16.898438 0.734375 15.609375 0.734375 C 13.597656 0.734375 11.664062 0.332031 9.8125 -0.46875 C 7.957031 -1.269531 6.382812 -2.382812 5.09375 -3.8125 C 3.925781 -5.15625 3.03125 -6.753906 2.40625 -8.609375 C 1.78125 -10.460938 1.46875 -12.257812 1.46875 -14 C 1.46875 -16.007812 1.789062 -17.90625 2.4375 -19.6875 C 3.09375 -21.476562 4 -23.066406 5.15625 -24.453125 C 6.675781 -26.242188 8.316406 -27.492188 10.078125 -28.203125 C 11.847656 -28.921875 13.582031 -29.28125 15.28125 -29.28125 C 17.195312 -29.28125 18.976562 -28.875 20.625 -28.0625 C 22.28125 -27.257812 23.671875 -26.144531 24.796875 -24.71875 C 25.734375 -23.507812 26.445312 -22.113281 26.9375 -20.53125 C 27.425781 -18.945312 27.691406 -17.375 27.734375 -15.8125 L 8.984375 -15.8125 L 8.984375 -11.25 C 8.984375 -9.550781 9.101562 -8.019531 9.34375 -6.65625 C 9.59375 -5.300781 10.070312 -4.132812 10.78125 -3.15625 C 11.40625 -2.34375 12.164062 -1.691406 13.0625 -1.203125 C 13.957031 -0.710938 14.984375 -0.46875 16.140625 -0.46875 C 17.210938 -0.46875 18.363281 -0.734375 19.59375 -1.265625 C 20.820312 -1.804688 22.019531 -2.59375 23.1875 -3.625 C 23.988281 -4.375 24.722656 -5.171875 25.390625 -6.015625 C 26.054688 -6.867188 26.546875 -7.519531 26.859375 -7.96875 Z M 20.765625 -16.953125 L 20.765625 -18.6875 C 20.765625 -19.71875 20.71875 -20.757812 20.625 -21.8125 C 20.539062 -22.863281 20.390625 -23.765625 20.171875 -24.515625 C 19.367188 -26.929688 17.671875 -28.140625 15.078125 -28.140625 C 13.773438 -28.140625 12.6875 -27.867188 11.8125 -27.328125 C 10.945312 -26.796875 10.269531 -26.039062 9.78125 -25.0625 C 9.425781 -24.300781 9.203125 -23.59375 9.109375 -22.9375 C 9.023438 -22.289062 8.984375 -21.703125 8.984375 -21.171875 L 8.984375 -16.953125 Z M 20.765625 -16.953125 "/></g></g></g><g fill="#000000" fill-opacity="1"><g transform="translate(178.920312, 56.624994)"><g><path d="M 36.3125 -43.890625 L 37.046875 -29.8125 L 35.4375 -29.8125 C 35.394531 -30.164062 35.328125 -30.6875 35.234375 -31.375 C 35.148438 -32.070312 35.019531 -32.832031 34.84375 -33.65625 C 34.664062 -34.488281 34.421875 -35.335938 34.109375 -36.203125 C 33.796875 -37.078125 33.367188 -37.875 32.828125 -38.59375 C 31.671875 -40.195312 30.332031 -41.253906 28.8125 -41.765625 C 27.289062 -42.285156 25.660156 -42.546875 23.921875 -42.546875 L 15.484375 -42.546875 L 15.484375 -23.1875 L 19.765625 -23.1875 C 20.078125 -23.1875 20.5 -23.195312 21.03125 -23.21875 C 21.570312 -23.238281 22.128906 -23.359375 22.703125 -23.578125 C 23.285156 -23.804688 23.867188 -24.164062 24.453125 -24.65625 C 25.035156 -25.144531 25.523438 -25.859375 25.921875 -26.796875 C 26.234375 -27.472656 26.46875 -28.222656 26.625 -29.046875 C 26.78125 -29.867188 26.90625 -30.59375 27 -31.21875 L 28.34375 -31.21875 L 28.34375 -13.671875 L 27 -13.671875 C 27 -13.890625 26.941406 -14.476562 26.828125 -15.4375 C 26.722656 -16.40625 26.445312 -17.378906 26 -18.359375 C 25.28125 -19.921875 24.394531 -20.890625 23.34375 -21.265625 C 22.300781 -21.648438 21.242188 -21.84375 20.171875 -21.84375 L 15.484375 -21.84375 L 15.484375 -1.34375 L 20.640625 -1.34375 L 20.640625 0 L 2.8125 0 L 2.8125 -1.34375 L 7.96875 -1.34375 L 7.96875 -42.546875 L 2.8125 -42.546875 L 2.8125 -43.890625 Z M 36.3125 -43.890625 "/></g></g></g><g fill="#000000" fill-opacity="1"><g transform="translate(216.90706, 56.624994)"><g><path d="M 1.34375 -27.40625 L 1.34375 -28.546875 L 7.96875 -28.546875 C 8.6875 -28.546875 9.300781 -28.554688 9.8125 -28.578125 C 10.332031 -28.597656 11.101562 -28.695312 12.125 -28.875 L 12.125 -1.140625 L 16.34375 -1.140625 L 16.34375 0 L 1.34375 0 L 1.34375 -1.140625 L 5.5625 -1.140625 L 5.5625 -27.40625 Z M 4.953125 -39.390625 C 4.953125 -40.421875 5.320312 -41.300781 6.0625 -42.03125 C 6.800781 -42.769531 7.679688 -43.140625 8.703125 -43.140625 C 9.734375 -43.140625 10.617188 -42.769531 11.359375 -42.03125 C 12.097656 -41.300781 12.46875 -40.421875 12.46875 -39.390625 C 12.46875 -38.367188 12.097656 -37.488281 11.359375 -36.75 C 10.617188 -36.007812 9.734375 -35.640625 8.703125 -35.640625 C 7.679688 -35.640625 6.800781 -36.007812 6.0625 -36.75 C 5.320312 -37.488281 4.953125 -38.367188 4.953125 -39.390625 Z M 4.953125 -39.390625 "/></g></g></g><g fill="#000000" fill-opacity="1"><g transform="translate(234.393036, 56.624994)"><g><path d="M 1.34375 -27.40625 L 1.34375 -28.546875 L 8.046875 -28.546875 C 8.441406 -28.546875 8.773438 -28.546875 9.046875 -28.546875 C 9.316406 -28.546875 9.59375 -28.554688 9.875 -28.578125 C 10.164062 -28.597656 10.476562 -28.628906 10.8125 -28.671875 C 11.15625 -28.722656 11.59375 -28.789062 12.125 -28.875 L 12.125 -24.65625 C 12.613281 -25.1875 13.226562 -25.765625 13.96875 -26.390625 C 14.707031 -27.023438 15.390625 -27.519531 16.015625 -27.875 C 16.992188 -28.457031 17.941406 -28.835938 18.859375 -29.015625 C 19.773438 -29.191406 20.679688 -29.28125 21.578125 -29.28125 C 22.597656 -29.28125 23.753906 -29.144531 25.046875 -28.875 C 26.347656 -28.601562 27.488281 -27.976562 28.46875 -27 C 28.96875 -26.507812 29.394531 -25.90625 29.75 -25.1875 C 30.101562 -24.476562 30.28125 -23.609375 30.28125 -22.578125 L 30.28125 -1.140625 L 34.5 -1.140625 L 34.5 0 L 19.96875 0 L 19.96875 -1.140625 L 23.71875 -1.140625 L 23.71875 -22.578125 C 23.71875 -23.066406 23.679688 -23.601562 23.609375 -24.1875 C 23.546875 -24.769531 23.269531 -25.375 22.78125 -26 C 22.289062 -26.625 21.753906 -27.023438 21.171875 -27.203125 C 20.585938 -27.378906 19.941406 -27.46875 19.234375 -27.46875 C 18.554688 -27.46875 17.914062 -27.378906 17.3125 -27.203125 C 16.71875 -27.023438 16.0625 -26.664062 15.34375 -26.125 C 14.851562 -25.769531 14.304688 -25.289062 13.703125 -24.6875 C 13.097656 -24.082031 12.570312 -23.535156 12.125 -23.046875 L 12.125 -1.140625 L 15.875 -1.140625 L 15.875 0 L 1.34375 0 L 1.34375 -1.140625 L 5.5625 -1.140625 L 5.5625 -27.40625 Z M 1.34375 -27.40625 "/></g></g></g><g fill="#000000" fill-opacity="1"><g transform="translate(270.034924, 56.624994)"><g><path d="M 17.421875 -42.546875 L 17.421875 -43.6875 L 24.125 -43.6875 C 25.101562 -43.6875 25.894531 -43.707031 26.5 -43.75 C 27.101562 -43.789062 27.671875 -43.90625 28.203125 -44.09375 L 28.203125 -1.140625 L 32.421875 -1.140625 L 32.421875 0 L 21.640625 0 L 21.640625 -3.625 C 21.015625 -2.59375 20.28125 -1.71875 19.4375 -1 C 18 0.15625 16.363281 0.734375 14.53125 0.734375 C 13.78125 0.734375 12.96875 0.65625 12.09375 0.5 C 11.21875 0.34375 10.332031 0.0546875 9.4375 -0.359375 C 8.550781 -0.785156 7.660156 -1.378906 6.765625 -2.140625 C 5.867188 -2.898438 5.019531 -3.863281 4.21875 -5.03125 C 2.382812 -7.75 1.46875 -10.71875 1.46875 -13.9375 C 1.46875 -16.21875 1.8125 -18.25 2.5 -20.03125 C 3.195312 -21.820312 4.101562 -23.363281 5.21875 -24.65625 C 6.5625 -26.21875 8.125 -27.378906 9.90625 -28.140625 C 11.695312 -28.898438 13.441406 -29.28125 15.140625 -29.28125 C 16.035156 -29.28125 16.796875 -29.191406 17.421875 -29.015625 C 18.046875 -28.835938 18.648438 -28.566406 19.234375 -28.203125 C 19.722656 -27.890625 20.15625 -27.578125 20.53125 -27.265625 C 20.914062 -26.953125 21.285156 -26.570312 21.640625 -26.125 L 21.640625 -42.546875 Z M 8.984375 -9.171875 C 8.984375 -8.367188 9.046875 -7.375 9.171875 -6.1875 C 9.304688 -5.007812 9.664062 -3.972656 10.25 -3.078125 C 10.738281 -2.316406 11.40625 -1.691406 12.25 -1.203125 C 13.101562 -0.710938 14.023438 -0.46875 15.015625 -0.46875 C 15.898438 -0.46875 16.84375 -0.710938 17.84375 -1.203125 C 18.851562 -1.691406 19.695312 -2.453125 20.375 -3.484375 C 21.21875 -4.734375 21.640625 -6.117188 21.640625 -7.640625 L 21.640625 -20.5 C 21.640625 -21.300781 21.59375 -22.113281 21.5 -22.9375 C 21.414062 -23.769531 21.128906 -24.585938 20.640625 -25.390625 C 20.097656 -26.242188 19.378906 -26.90625 18.484375 -27.375 C 17.597656 -27.84375 16.707031 -28.078125 15.8125 -28.078125 C 14.519531 -28.078125 13.347656 -27.707031 12.296875 -26.96875 C 11.242188 -26.226562 10.472656 -25.28125 9.984375 -24.125 C 9.804688 -23.757812 9.648438 -23.304688 9.515625 -22.765625 C 9.378906 -22.234375 9.273438 -21.6875 9.203125 -21.125 C 9.140625 -20.570312 9.085938 -20.023438 9.046875 -19.484375 C 9.003906 -18.953125 8.984375 -18.488281 8.984375 -18.09375 Z M 8.984375 -9.171875 "/></g></g></g><g fill="#000000" fill-opacity="1"><g transform="translate(303.599939, 56.624994)"><g><path d="M 28 -7.234375 C 27.46875 -6.335938 26.8125 -5.429688 26.03125 -4.515625 C 25.25 -3.609375 24.523438 -2.863281 23.859375 -2.28125 C 22.515625 -1.113281 21.125 -0.320312 19.6875 0.09375 C 18.257812 0.519531 16.898438 0.734375 15.609375 0.734375 C 13.597656 0.734375 11.664062 0.332031 9.8125 -0.46875 C 7.957031 -1.269531 6.382812 -2.382812 5.09375 -3.8125 C 3.925781 -5.15625 3.03125 -6.753906 2.40625 -8.609375 C 1.78125 -10.460938 1.46875 -12.257812 1.46875 -14 C 1.46875 -16.007812 1.789062 -17.90625 2.4375 -19.6875 C 3.09375 -21.476562 4 -23.066406 5.15625 -24.453125 C 6.675781 -26.242188 8.316406 -27.492188 10.078125 -28.203125 C 11.847656 -28.921875 13.582031 -29.28125 15.28125 -29.28125 C 17.195312 -29.28125 18.976562 -28.875 20.625 -28.0625 C 22.28125 -27.257812 23.671875 -26.144531 24.796875 -24.71875 C 25.734375 -23.507812 26.445312 -22.113281 26.9375 -20.53125 C 27.425781 -18.945312 27.691406 -17.375 27.734375 -15.8125 L 8.984375 -15.8125 L 8.984375 -11.25 C 8.984375 -9.550781 9.101562 -8.019531 9.34375 -6.65625 C 9.59375 -5.300781 10.070312 -4.132812 10.78125 -3.15625 C 11.40625 -2.34375 12.164062 -1.691406 13.0625 -1.203125 C 13.957031 -0.710938 14.984375 -0.46875 16.140625 -0.46875 C 17.210938 -0.46875 18.363281 -0.734375 19.59375 -1.265625 C 20.820312 -1.804688 22.019531 -2.59375 23.1875 -3.625 C 23.988281 -4.375 24.722656 -5.171875 25.390625 -6.015625 C 26.054688 -6.867188 26.546875 -7.519531 26.859375 -7.96875 Z M 20.765625 -16.953125 L 20.765625 -18.6875 C 20.765625 -19.71875 20.71875 -20.757812 20.625 -21.8125 C 20.539062 -22.863281 20.390625 -23.765625 20.171875 -24.515625 C 19.367188 -26.929688 17.671875 -28.140625 15.078125 -28.140625 C 13.773438 -28.140625 12.6875 -27.867188 11.8125 -27.328125 C 10.945312 -26.796875 10.269531 -26.039062 9.78125 -25.0625 C 9.425781 -24.300781 9.203125 -23.59375 9.109375 -22.9375 C 9.023438 -22.289062 8.984375 -21.703125 8.984375 -21.171875 L 8.984375 -16.953125 Z M 20.765625 -16.953125 "/></g></g></g><g fill="#000000" fill-opacity="1"><g transform="translate(333.078178, 56.624994)"><g><path d="M 1.34375 -27.40625 L 1.34375 -28.546875 L 8.046875 -28.546875 C 8.710938 -28.546875 9.300781 -28.554688 9.8125 -28.578125 C 10.332031 -28.597656 11.101562 -28.695312 12.125 -28.875 L 12.125 -22.90625 C 12.4375 -23.539062 12.816406 -24.210938 13.265625 -24.921875 C 13.710938 -25.640625 14.160156 -26.222656 14.609375 -26.671875 C 15.140625 -27.242188 15.929688 -27.820312 16.984375 -28.40625 C 18.035156 -28.988281 19.273438 -29.28125 20.703125 -29.28125 C 21.597656 -29.28125 22.347656 -29.164062 22.953125 -28.9375 C 23.554688 -28.71875 24.035156 -28.472656 24.390625 -28.203125 C 25.460938 -27.398438 26 -26.238281 26 -24.71875 C 26 -24.269531 25.941406 -23.84375 25.828125 -23.4375 C 25.710938 -23.039062 25.476562 -22.664062 25.125 -22.3125 C 24.363281 -21.550781 23.535156 -21.171875 22.640625 -21.171875 C 21.617188 -21.171875 20.796875 -21.457031 20.171875 -22.03125 C 19.546875 -22.613281 19.234375 -23.351562 19.234375 -24.25 C 19.234375 -24.476562 19.253906 -24.679688 19.296875 -24.859375 C 19.335938 -25.035156 19.359375 -25.234375 19.359375 -25.453125 C 19.359375 -26.304688 18.820312 -26.734375 17.75 -26.734375 C 16.632812 -26.734375 15.519531 -26.039062 14.40625 -24.65625 C 13.863281 -23.988281 13.4375 -23.304688 13.125 -22.609375 C 12.8125 -21.921875 12.585938 -21.265625 12.453125 -20.640625 C 12.328125 -20.015625 12.238281 -19.441406 12.1875 -18.921875 C 12.144531 -18.410156 12.125 -18 12.125 -17.6875 L 12.125 -1.140625 L 16.34375 -1.140625 L 16.34375 0 L 1.34375 0 L 1.34375 -1.140625 L 5.5625 -1.140625 L 5.5625 -27.40625 Z M 1.34375 -27.40625 "/></g></g></g></svg>